<svg xmlns="http://www.w3.org/2000/svg" viewBox="0 0 1600 900" role="img" aria-label="">
  <rect width="1600" height="900" fill="#f5eee7"/>
  <circle cx="310" cy="225" r="110" fill="#ffd2bd"/>
  <path d="M0 680c260-90 475-95 730-8 260 88 510 52 870-40v268H0Z" fill="#d9b692"/>
  <path d="M0 765c335-62 610-28 850 38 225 61 480 45 750-22v119H0Z" fill="#c99a71"/>
  <g fill="#a9b6b5">
    <rect x="790" y="365" width="95" height="360" rx="4"/>
    <rect x="910" y="445" width="120" height="280" rx="4"/>
    <path d="M1110 725h105l-37-470-16-135-15 135Z"/>
    <rect x="1255" y="505" width="140" height="220" rx="4"/>
  </g>
  <g fill="#f8faf9" opacity=".75">
    <rect x="815" y="410" width="18" height="230"/><rect x="935" y="485" width="20" height="190"/>
  </g>
</svg>
