<svg xmlns="http://www.w3.org/2000/svg" viewBox="0 0 1600 900" role="img" aria-label="">
  <rect width="1600" height="900" fill="#f4f2f1"/>
  <circle cx="1225" cy="210" r="112" fill="#ffb2c7" opacity=".72"/>
  <path d="m435 650 365-480 370 480Z" fill="#aab9bf"/>
  <path d="m665 347 135-177 138 179-81-28-57 48-62-48Z" fill="#f9faf9"/>
  <path d="M0 700c235-100 450-80 680 5 240 88 535 82 920-35v230H0Z" fill="#d7e0dc"/>
  <g fill="none" stroke="#b66a7e" stroke-width="16" stroke-linecap="round">
    <path d="M140 680c105-230 240-315 385-330"/><path d="M280 520c-50-80-95-115-150-135"/>
  </g>
  <g fill="#f3a9bd"><circle cx="172" cy="402" r="28"/><circle cx="235" cy="435" r="22"/><circle cx="365" cy="360" r="30"/><circle cx="465" cy="345" r="24"/></g>
</svg>
